Encoded by Ratzz.






General
Complete name : The Muppets 2011 1080p Brrip x264 Ratzz.mp4
Format : MP4
Format profile : Base Media
Codec ID : isom
File size : 1.30 GiB
Duration : 1h 42mn
Overall bit rate : 1 811 Kbps

Video
ID : 1
Format : AVC
Format profile : High@L5.0
Duration : 1h 42mn
Bit rate mode : Variable
Bit rate : 1 713 Kbps
Maximum bit rate : 169 Mbps
Width : 1 920 pixels
Height : 1 080 pixels
Display aspect ratio : 16:9
Frame rate mode : Constant
Frame rate : 23.976 fps
Stream size : 1.23 GiB (95%)
Title : The Muppets 2011 1080p Brrip x264 Ratzz

Audio
ID : 2
Format : AAC
Format/Info : Advanced Audio Codec
Format profile : LC
Codec ID : 40
Duration : 1h 42mn
Bit rate mode : Variable
Bit rate : 96.0 Kbps
Maximum bit rate : 101 Kbps
Channel(s) : 2 channels
Channel positions : Front: L R
Sampling rate : 48.0 KHz
Compression mode : Lossy
Stream size : 70.5 MiB (5%)
Language : English
















Subtitles : eng .srt included.














Poster :
  
http://img534.imageshack.us/img534/3810/themuppetsblurayposter.jpg


Screen shots :

  
http://img252.imageshack.us/img252/5941/themuppets1080pbrripx26.jpg
  
http://img29.imageshack.us/img29/5941/themuppets1080pbrripx26.jpg
  
http://img3.imageshack.us/img3/5941/themuppets1080pbrripx26.jpg






pls seed back after download and provide feedback.
thank you.		